<?xml version="1.0" encoding="UTF-8"?>
<svg width="24" height="24" fill="#000000" version="1.1" viewBox="0 0 192 192" xmlns="http://www.w3.org/2000/svg"><path d="m168.75 60.31-31.05-31.05a18 18 0 0 0-25.455 0l-88.995 88.995a18 18 0 0 0 0 25.455l22.545 22.545a6 6 0 0 0 4.26 1.755h111.94a6 6 0 0 0 0-12h-63.525l70.275-70.245a18 18 0 0 0 0-25.455zm-87.24 95.7h-28.972l-20.79-20.79a6 6 0 0 1 0-8.4825l40.252-40.245 39.517 39.517zm78.75-78.75-40.26 40.267-39.517-39.517 40.267-40.245a6 6 0 0 1 8.49 0l31.035 31.035a6 6 0 0 1 0 8.4825z" stroke-width=".75"/><path d="m114.89 30.564a5.972 5.972 0 0 1-5.972 5.972h-23.888a5.972 5.972 0 0 1 0-11.944h23.888a5.972 5.972 0 0 1 5.972 5.972zm-5.972 125.41h-23.888a5.972 5.972 0 0 0 0 11.944h23.888a5.972 5.972 0 0 0 0-11.944zm47.776-131.38h-17.916a5.972 5.972 0 0 0 0 11.944h17.916v17.916a5.972 5.972 0 0 0 11.944 0v-17.916a11.944 11.944 0 0 0-11.944-11.944zm5.972 53.748a5.972 5.972 0 0 0-5.972 5.972v23.888a5.972 5.972 0 0 0 11.944 0v-23.888a5.972 5.972 0 0 0-5.972-5.972zm0 53.748a5.972 5.972 0 0 0-5.972 5.972v17.916h-17.916a5.972 5.972 0 0 0 0 11.944h17.916a11.944 11.944 0 0 0 11.944-11.944v-17.916a5.972 5.972 0 0 0-5.972-5.972zm-131.38-17.916a5.972 5.972 0 0 0 5.972-5.972v-23.888a5.972 5.972 0 0 0-11.944 0v23.888a5.972 5.972 0 0 0 5.972 5.972zm23.888 41.804h-17.916v-17.916a5.972 5.972 0 0 0-11.944 0v17.916a11.944 11.944 0 0 0 11.944 11.944h17.916a5.972 5.972 0 0 0 0-11.944zm0-131.38h-17.916a11.944 11.944 0 0 0-11.944 11.944v17.916a5.972 5.972 0 0 0 11.944 0v-17.916h17.916a5.972 5.972 0 0 0 0-11.944z" fill="#000" stroke-width=".7465"/><path d="m118.05 125.35-36 36h-33.938l-22.545-22.545a12 12 0 0 1 0-16.972l44.482-44.482z" opacity=".2" stroke-width=".75"/></svg>
