<?xml version="1.0" encoding="UTF-8"?>
<svg width="24" height="24" fill="#000000" version="1.1" viewBox="0 0 192 192" xmlns="http://www.w3.org/2000/svg"><path d="m126.28 128.52-36 36h-33.938l-22.545-22.545a12 12 0 0 1 0-16.972l44.482-44.482z" opacity=".2" stroke-width=".75"/><path d="m168.75 60.31-31.05-31.05a18 18 0 0 0-25.455 0l-88.995 88.995a18 18 0 0 0 0 25.455l22.545 22.545a6 6 0 0 0 4.26 1.755h111.94a6 6 0 0 0 0-12h-63.525l70.275-70.245a18 18 0 0 0 0-25.455zm-87.24 95.7h-28.972l-20.79-20.79a6 6 0 0 1 0-8.4825l40.252-40.245 39.517 39.517zm78.75-78.75-40.26 40.267-39.517-39.517 40.267-40.245a6 6 0 0 1 8.49 0l31.035 31.035a6 6 0 0 1 0 8.4825z" stroke-width=".75"/><path d="m72.359 16.045h-57.592l-0.56171 16.648h3.2417c1.7596-10.449 5.1298-12.067 18.225-12.486l2.8695-0.08798v52.97c0 4.4869-0.97453 5.5494-8.7979 6.2465v3.5192h27.625v-3.5192c-7.864-0.69706-8.8385-1.7596-8.8385-6.2465v-52.97l2.9168 0.08798c13.089 0.41959 16.472 2.037 18.225 12.493h3.2417z" stroke-width="6.7676"/></svg>
